<?xml version="1.0" encoding="UTF-8"?>
<svg xmlns="http://www.w3.org/2000/svg" xmlns:xlink="http://www.w3.org/1999/xlink" version="1.1" viewBox="0 0 113.3857 56.6924">
  <defs>
    <linearGradient id="Degradado_sin_nombre_7" data-name="Degradado sin nombre 7" x1="16.0071" y1="574.3506" x2="24.4896" y2="588.8753" gradientTransform="translate(0 -550.5396)" gradientUnits="userSpaceOnUse">
      <stop offset="0" stop-color="#498b64"/>
      <stop offset=".25" stop-color="#63ab80"/>
    </linearGradient>
    <linearGradient id="Degradado_sin_nombre_6" data-name="Degradado sin nombre 6" x1="22.6211" y1="587.1013" x2="31.3982" y2="573.035" gradientTransform="translate(0 -550.5396)" gradientUnits="userSpaceOnUse">
      <stop offset="0" stop-color="#8a366e"/>
      <stop offset=".21" stop-color="#b64a90"/>
    </linearGradient>
    <linearGradient id="Degradado_sin_nombre_5" data-name="Degradado sin nombre 5" x1="15.5508" y1="573.4372" x2="30.1837" y2="578.7038" gradientTransform="translate(0 -550.5396)" gradientUnits="userSpaceOnUse">
      <stop offset=".6" stop-color="#de962f"/>
      <stop offset="1" stop-color="#c7702b"/>
    </linearGradient>
  </defs>
  <!-- Generator: Adobe Illustrator 28.7.1, SVG Export Plug-In . SVG Version: 1.2.0 Build 142)  -->
  <g>
    <g id="Calque_1">
      <g>
        <path d="M44.4017,27.3071v5.6554h-2.8065v-5.1026c0-.5953-.1701-.7654-.4252-.7654-.2977,0-.6378.2551-.9355.7654v5.1026h-2.8065v-10.6305l2.8065-.2977v3.9971c.6378-.6804,1.2757-.978,2.1261-.978,1.2757-.0425,2.0411.8079,2.0411,2.2537ZM52.5659,29.9435h-4.5499c.1701,1.1056.6804,1.2757,1.5308,1.2757.5528,0,1.0631-.2126,1.7009-.6804l1.1481,1.5733c-.8504.7229-1.9985,1.1481-3.1041,1.1481-2.7639,0-4.0821-1.7434-4.0821-4.0821,0-2.2537,1.2757-4.1246,3.7845-4.1246,2.2111,0,3.6994,1.4457,3.6994,3.9971-.0425.2126-.085.5953-.1276.893h0ZM49.887,28.2426c0-.7654-.1701-1.4032-.893-1.4032-.5953,0-.893.3402-1.0205,1.5308h1.9135v-.1276ZM53.3313,30.7514v-8.4619l2.8065-.2977v8.632c0,.2551.1276.3827.3402.3827.085,0,.2126,0,.2977-.085l.5103,1.9985c-.5103.1701-1.0205.2551-1.5308.2551-1.5733.085-2.4238-.8504-2.4238-2.4238ZM57.5835,30.7514v-8.4619l2.8065-.2977v8.632c0,.2551.1276.3827.3402.3827.085,0,.2126,0,.2977-.085l.5103,1.9985c-.5103.1701-1.0205.2551-1.5308.2551-1.5733.085-2.4238-.8504-2.4238-2.4238ZM69.192,29.1356c0,2.5088-1.4883,4.0821-3.912,4.0821-2.3812,0-3.912-1.4457-3.912-4.1246,0-2.5088,1.4883-4.0821,3.912-4.0821,2.3812,0,3.912,1.4883,3.912,4.1246ZM64.302,29.1356c0,1.5308.2977,2.0836,1.0205,2.0836.6804,0,1.0205-.5953,1.0205-2.0836,0-1.5308-.2977-2.0836-1.0205-2.0836s-1.0631.6378-1.0205,2.0836ZM77.016,31.3892l-.5528,1.8284c-.978-.085-1.6158-.3402-2.0411-1.0631-.5528.8504-1.4032,1.1056-2.2962,1.1056-1.5308,0-2.5088-1.0205-2.5088-2.4238,0-1.7009,1.2757-2.6364,3.6569-2.6364h.5528v-.2126c0-.7654-.2551-.978-1.1056-.978-.6804.0425-1.3182.1701-1.956.3827l-.5953-1.7859c.9355-.3827,1.956-.5953,2.9765-.5953,2.4238,0,3.4018.9355,3.4018,2.8065v2.6364c0,.5528.1276.8079.4677.9355h0ZM73.8269,30.7939v-1.1481h-.2977c-.8079,0-1.1481.2551-1.1481.8504,0,.4252.2551.7229.6378.7229.2977.0425.6378-.1276.8079-.4252ZM83.7345,26.0314l-.978,1.5308c-.5528-.3402-1.1481-.5528-1.7859-.5528-.4677,0-.6378.1276-.6378.3402,0,.2551.085.3827,1.5308.8079,1.4457.4677,2.2111,1.0631,2.2111,2.4663,0,1.5733-1.4883,2.6364-3.5718,2.6364-1.3182,0-2.5513-.4677-3.3167-1.2331l1.3182-1.4883c.5528.4252,1.2331.7654,1.9135.7654.5103,0,.8079-.1701.8079-.4677,0-.3827-.1701-.4677-1.4457-.8504-1.4032-.4252-2.2111-1.2331-2.2111-2.4663,0-1.3607,1.1906-2.4663,3.2742-2.4663,1.1056-.0425,2.2111.3402,2.8915.978h0ZM90.7507,26.0314l-.978,1.5308c-.5528-.3402-1.1481-.5528-1.7859-.5528-.4677,0-.6378.1276-.6378.3402,0,.2551.085.3827,1.5308.8079,1.4457.4677,2.2111,1.0631,2.2111,2.4663,0,1.5733-1.4883,2.6364-3.5718,2.6364-1.3182,0-2.5513-.4677-3.3167-1.2331l1.3182-1.4883c.5528.4252,1.2331.7654,1.9135.7654.5103,0,.8079-.1701.8079-.4677,0-.3827-.1701-.4677-1.4457-.8504-1.4032-.4252-2.2111-1.2331-2.2111-2.4663,0-1.3607,1.1906-2.4663,3.2742-2.4663,1.1056-.0425,2.1686.3402,2.8915.978h0ZM99.2125,29.1356c0,2.5088-1.4883,4.0821-3.912,4.0821-2.3812,0-3.912-1.4457-3.912-4.1246,0-2.5088,1.4883-4.0821,3.912-4.0821,2.3812,0,3.912,1.4883,3.912,4.1246ZM94.3225,29.1356c0,1.5308.2977,2.0836,1.0205,2.0836.6804,0,1.0205-.5953,1.0205-2.0836,0-1.5308-.2977-2.0836-1.0205-2.0836s-1.0631.6378-1.0205,2.0836Z" fill="#2f305f"/>
        <path d="M19.6539,33.9405c-2.8065-3.2317-.9355-11.3959.2551-11.3959-2.2962-.085-6.2082,1.4457-5.6554,6.9311.6378,5.1026,5.2302,8.6745,10.2478,8.0367,1.6158-.2126,3.1041-.8504,4.3798-1.8284-4.4223,3.1892-7.3988.3402-9.2273-1.7434Z" fill="url(#Degradado_sin_nombre_7)"/>
        <path d="M29.9867,28.4127c-2.3387,4.7199-9.5249,6.7185-10.3328,5.4853,1.4032,2.0836,4.89,4.9326,9.2698,1.7009,3.9971-3.1041,4.7199-8.9296,1.6158-12.9692-.978-1.2757-2.2962-2.2537-3.7845-2.8915,4.9751,2.2537,4.4648,6.2082,3.2317,8.6745Z" fill="url(#Degradado_sin_nombre_6)"/>
        <path d="M19.909,22.5446c5.0601-.5528,10.8006,4.6774,10.0777,5.9106,1.4032-2.4663,1.7434-6.4208-3.1892-8.6745-4.7199-1.9135-10.0777.3827-11.9487,5.1452-.5953,1.4883-.8079,3.1041-.5953,4.6774-.3402-5.4428,3.7845-6.8886,5.6554-7.0587Z" fill="url(#Degradado_sin_nombre_5)"/>
      </g>
    </g>
  </g>
</svg>